<svg width="500" height="500" viewBox="0 0 500 500" fill="none" xmlns="http://www.w3.org/2000/svg">
<circle cx="250" cy="250" r="250" fill="white"/>
<path d="M121.2 160H141.6V308.8H207.6V328H121.2V160ZM229.247 160H249.647V308.8H315.647V328H229.247V160ZM348.159 318.4C348.159 314.72 349.439 311.6 351.999 309.04C354.719 306.48 357.839 305.2 361.359 305.2C365.039 305.2 368.159 306.48 370.719 309.04C373.279 311.6 374.559 314.72 374.559 318.4C374.559 321.92 373.279 325.04 370.719 327.76C368.159 330.32 365.039 331.6 361.359 331.6C357.839 331.6 354.719 330.32 351.999 327.76C349.439 325.04 348.159 321.92 348.159 318.4Z" fill="black"/>
</svg>
